<svg width="35" height="36" viewBox="0 0 35 36" fill="none" xmlns="http://www.w3.org/2000/svg">
<circle cx="17.2058" cy="17.9615" r="17.1228" fill="white" fill-opacity="0.81"/>
<path d="M23.1933 13.4459C22.5204 12.8892 21.6562 12.5832 20.7604 12.5832C19.7257 12.5832 18.7242 12.9946 18.0129 13.7132C17.8851 13.8426 17.7652 13.9815 17.6527 14.1323C16.7818 12.9732 15.3265 12.3784 13.8872 12.6415C12.6928 12.8582 11.7537 13.5146 11.098 14.5909C10.1728 16.1106 10.0971 17.5763 10.8742 18.9476C11.2896 19.6812 11.8286 20.3961 12.522 21.1331C13.7921 22.4832 15.2955 23.7647 17.2536 25.1645C17.3787 25.2543 17.5126 25.2997 17.6524 25.2997C17.8676 25.2997 18.0129 25.1908 18.085 25.1375C19.8517 23.8759 21.2396 22.7131 22.453 21.4761C23.1305 20.7857 23.8994 19.9372 24.4616 18.8774C24.7026 18.4246 24.9773 17.8151 24.961 17.1189C24.9248 15.6207 24.3304 14.3849 23.1933 13.4459ZM23.5413 18.3887C23.0407 19.3311 22.3343 20.1088 21.7089 20.7459C20.5869 21.89 19.3039 22.9728 17.6506 24.1666C15.8513 22.8649 14.4586 21.6696 13.2814 20.4176C12.6459 19.7422 12.155 19.0932 11.7807 18.4325C11.1881 17.3871 11.254 16.3381 11.9886 15.1326C12.4828 14.3208 13.1842 13.8273 14.0739 13.6657C14.2443 13.6344 14.4169 13.6191 14.587 13.6191C15.6416 13.6191 16.5758 14.2016 17.1034 15.213L17.1929 15.3819C17.2848 15.5545 17.4743 15.6526 17.6613 15.6572C17.8572 15.6535 18.0341 15.5416 18.1202 15.3656C18.3054 14.9879 18.5074 14.6949 18.7539 14.4453C19.2708 13.9238 20.002 13.6243 20.7604 13.6243C21.4143 13.6243 22.0425 13.846 22.5296 14.2488C23.4358 14.9971 23.8902 15.9444 23.9193 17.1425C23.9294 17.5947 23.7341 18.0257 23.5413 18.3887Z" fill="#3B434E"/>
</svg>
