<svg width="35" height="35" viewBox="0 0 35 35" fill="none" xmlns="http://www.w3.org/2000/svg">
<path d="M0.173828 17.4195C0.173828 7.91366 7.87979 0.207703 17.3856 0.207703C26.8914 0.207703 34.5973 7.91366 34.5973 17.4195C34.5973 26.9252 26.8914 34.6312 17.3856 34.6312C7.87979 34.6312 0.173828 26.9252 0.173828 17.4195Z" fill="#FC836D"/>
<path d="M4.56344 22.1101C3.9701 22.1101 3.50344 21.9934 3.16344 21.7601C2.8301 21.5267 2.59677 21.2101 2.46344 20.8101C2.3301 20.4034 2.26344 19.9367 2.26344 19.4101V16.5201C2.26344 15.9667 2.3301 15.4867 2.46344 15.0801C2.59677 14.6734 2.8301 14.3601 3.16344 14.1401C3.50344 13.9201 3.9701 13.8101 4.56344 13.8101C5.12344 13.8101 5.5601 13.9067 5.87344 14.1001C6.19344 14.2867 6.4201 14.5567 6.55344 14.9101C6.68677 15.2634 6.75344 15.6734 6.75344 16.1401V16.8201H5.33344V16.1201C5.33344 15.8934 5.3201 15.6867 5.29344 15.5001C5.27344 15.3134 5.2101 15.1667 5.10344 15.0601C5.00344 14.9467 4.82677 14.8901 4.57344 14.8901C4.3201 14.8901 4.13344 14.9501 4.01344 15.0701C3.9001 15.1834 3.82677 15.3401 3.79344 15.5401C3.7601 15.7334 3.74344 15.9534 3.74344 16.2001V19.7201C3.74344 20.0134 3.76677 20.2567 3.81344 20.4501C3.8601 20.6367 3.94344 20.7801 4.06344 20.8801C4.1901 20.9734 4.3601 21.0201 4.57344 21.0201C4.8201 21.0201 4.99344 20.9634 5.09344 20.8501C5.2001 20.7301 5.26677 20.5734 5.29344 20.3801C5.3201 20.1867 5.33344 19.9701 5.33344 19.7301V19.0001H6.75344V19.6501C6.75344 20.1301 6.6901 20.5567 6.56344 20.9301C6.43677 21.2967 6.21344 21.5867 5.89344 21.8001C5.5801 22.0067 5.13677 22.1101 4.56344 22.1101ZM7.30383 22.0001V13.9001H8.77383V17.3001H9.07383L10.3838 13.9001H11.8538L10.3138 17.7201L11.9738 22.0001H10.4738L9.07383 18.2701H8.77383V22.0001H7.30383ZM12.214 22.0001V13.9001H13.424V19.0101L15.644 13.9001H16.634V22.0001H15.414V16.8101L13.184 22.0001H12.214ZM16.9176 23.6101V20.9501H17.2076C17.3409 20.8767 17.4676 20.7801 17.5876 20.6601C17.7142 20.5334 17.8276 20.3667 17.9276 20.1601C18.0276 19.9534 18.1176 19.6901 18.1976 19.3701C18.2842 19.0434 18.3576 18.6467 18.4176 18.1801C18.4842 17.7134 18.5342 17.1601 18.5676 16.5201L18.7476 13.9001H22.3276V20.9501H23.1776V23.6101H22.1476L22.0576 22.0001H18.0676L17.9676 23.6101H16.9176ZM18.5876 20.9501H20.9276V14.9601H19.9076L19.8176 16.7501C19.7909 17.3901 19.7476 17.9334 19.6876 18.3801C19.6276 18.8201 19.5576 19.1867 19.4776 19.4801C19.3976 19.7667 19.3076 20.0001 19.2076 20.1801C19.1142 20.3601 19.0142 20.5067 18.9076 20.6201C18.8009 20.7334 18.6942 20.8434 18.5876 20.9501ZM23.5089 22.0001V13.9001H24.9789V17.3001H25.2789L26.5889 13.9001H28.0589L26.5189 17.7201L28.1789 22.0001H26.6789L25.2789 18.2701H24.9789V22.0001H23.5089ZM27.9891 22.0001L29.6091 13.9001H31.1891L32.8091 22.0001H31.4391L31.1191 20.1301H29.7091L29.3791 22.0001H27.9891ZM29.8591 19.1901H30.9591L30.4091 15.7901L29.8591 19.1901Z" fill="white"/>
</svg>
