<svg width="16" height="14" viewBox="0 0 16 14" fill="none" xmlns="http://www.w3.org/2000/svg">
<path d="M4.07133 1.47368L3.66265 0H0.771084C0.56658 0 0.370452 0.0776313 0.225845 0.215816C0.081239 0.354001 0 0.541419 0 0.736842C0 0.932265 0.081239 1.11968 0.225845 1.25787C0.370452 1.39605 0.56658 1.47368 0.771084 1.47368H2.48289L4.97349 11.0526H15.2289V9.57895H6.17639L5.92193 8.59158L16 6.75684V1.47368H4.07133ZM14.4578 5.54105L5.55181 7.15474L4.43373 2.94737H14.4578V5.54105ZM5.20482 11.7895C4.97606 11.7895 4.75244 11.8543 4.56223 11.9757C4.37203 12.0972 4.22378 12.2698 4.13624 12.4718C4.04869 12.6737 4.02579 12.896 4.07042 13.1104C4.11505 13.3248 4.2252 13.5217 4.38696 13.6763C4.54872 13.8308 4.75481 13.9361 4.97917 13.9788C5.20354 14.0214 5.4361 13.9995 5.64744 13.9159C5.85879 13.8322 6.03943 13.6905 6.16652 13.5088C6.29361 13.327 6.36145 13.1133 6.36145 12.8947C6.36145 12.6016 6.23959 12.3205 6.02268 12.1132C5.80577 11.9059 5.51158 11.7895 5.20482 11.7895ZM14.4578 11.7895C14.2291 11.7895 14.0055 11.8543 13.8152 11.9757C13.625 12.0972 13.4768 12.2698 13.3892 12.4718C13.3017 12.6737 13.2788 12.896 13.3234 13.1104C13.3681 13.3248 13.4782 13.5217 13.64 13.6763C13.8017 13.8308 14.0078 13.9361 14.2322 13.9788C14.4565 14.0214 14.6891 13.9995 14.9005 13.9159C15.1118 13.8322 15.2924 13.6905 15.4195 13.5088C15.5466 13.327 15.6145 13.1133 15.6145 12.8947C15.6145 12.6016 15.4926 12.3205 15.2757 12.1132C15.0588 11.9059 14.7646 11.7895 14.4578 11.7895Z" fill="#383838"/>
</svg>
