<svg width="15" height="15" viewBox="0 0 15 15" fill="none" xmlns="http://www.w3.org/2000/svg">
<path d="M7.5 0.28125C4.97072 0.28125 2.90625 2.34572 2.90625 4.875C2.90625 6.4558 3.7142 7.86233 4.93652 8.68945C2.59559 9.69341 0.9375 12.0158 0.9375 14.7188H2.25C2.25 11.8111 4.59238 9.46875 7.5 9.46875C10.4076 9.46875 12.75 11.8111 12.75 14.7188H14.0625C14.0625 12.0158 12.4044 9.69341 10.0635 8.68945C11.2858 7.86233 12.0938 6.4558 12.0938 4.875C12.0938 2.34572 10.0293 0.28125 7.5 0.28125ZM7.5 1.59375C9.31996 1.59375 10.7812 3.05504 10.7812 4.875C10.7812 6.69496 9.31996 8.15625 7.5 8.15625C5.68004 8.15625 4.21875 6.69496 4.21875 4.875C4.21875 3.05504 5.68004 1.59375 7.5 1.59375Z" fill="#383838"/>
</svg>
